# xmcd
#
# Track frame offsets: 
#        150
#        20950
#        42292
#        70145
#        89785
#        109492
#        134412
#        152570
#        177572
#        198647
#
# Disc length: 2966 seconds
#
# Revision: 0
# Processed by: cddbd v1.5.2PL0 Copyright (c) Steve Scherf et al.
# Submitted via: ExactAudioCopy v1.0b3
#
DISCID=9a0b940a
DTITLE=Thien Trang, Tuan Vu - Vong Tay Giu Tron An Tinh
DYEAR=1992
DGENRE=
TTITLE0=Thien Trang - Tinh hau phuong
TTITLE1=Vong tay giu tron an tinh
TTITLE2=Thien Trang - Tieng xua
TTITLE3=Tuan Vu - Mot chuyen bay dem
TTITLE4=Thien Trang - Toi gap em
TTITLE5=Thien Trang - Hoa su nha nang
TTITLE6=Neu em ve ben anh
TTITLE7=Thien Trang - Chuyen chung minh
TTITLE8=Tuan Vu - Ky niem mot mua he
TTITLE9=Thien Trang - Tam anh khong hon
EXTD=
EXTT0=
EXTT1=
EXTT2=
EXTT3=
EXTT4=
EXTT5=
EXTT6=
EXTT7=
EXTT8=
EXTT9=
PLAYORDER=
